General

Format : AVI
Format/Info : Audio Video Interleave
File size : 492 MiB
Duration : 2h 13mn
Overall bit rate : 514 Kbps
Writing application : Lavf52.39.1

Video

ID : 0
Format : xvid
Codec ID : xvid
Duration : 2h 13mn
Bit rate : 469 Kbps
Width : 352 pixels
Height : 248 pixels
Display aspect ratio : 1.419
Frame rate : 25.000 fps
Bits/(Pixel*Frame) : 0.215
Stream size : 449 MiB (91%)

Audio
ID : 1
Format : MPEG Audio
Format version : Version 1
Format profile : Layer 3
Mode : Joint stereo
Mode extension : MS Stereo
Codec ID : 55
Codec ID/Hint : MP3
Duration : 2h 13mn
Bit rate mode : Constant
Bit rate : 32.0 Kbps
Channel(s) : 2 channels
Sampling rate : 48.0 KHz
Compression mode : Lossy
Stream size : 30.6 MiB (6%)
Alignment : Aligned on interleaves
Interleave, duration : 24 ms (0.60 video frame)
Writing library : LAME3.96.1

Screens
 
http://img265.imageshack.us/img265/113/vlcsnap2011122611h33m06.png
 
http://img24.imageshack.us/img24/7250/vlcsnap2011122611h33m20.png
 
http://img137.imageshack.us/img137/3691/vlcsnap2011122611h33m31.png